<svg version="1.1" id="Layer_1" xmlns="http://www.w3.org/2000/svg" xmlns:xlink="http://www.w3.org/1999/xlink" x="0px" y="0px"
	 width="100%" viewBox="0 0 1000 1000" enable-background="new 0 0 1000 1000" xml:space="preserve">
<path fill="#FFFFFF" opacity="1.000000" stroke="none" 
	d="
M665.000000,1001.000000 
	C443.333344,1001.000000 222.166672,1001.000000 1.000000,1001.000000 
	C1.000000,667.666687 1.000000,334.333344 1.000000,1.000000 
	C334.333344,1.000000 667.666687,1.000000 1001.000000,1.000000 
	C1001.000000,334.333344 1001.000000,667.666687 1001.000000,1001.000000 
	C889.166687,1001.000000 777.333313,1001.000000 665.000000,1001.000000 
M621.033875,740.564941 
	C621.582092,741.204407 622.130249,741.843933 622.711975,742.704041 
	C622.711975,742.704041 622.823975,742.897034 622.702698,743.667847 
	C622.940247,744.289307 623.121643,744.939514 623.423218,745.528137 
	C639.203247,776.326721 654.989868,807.122070 670.803101,837.903625 
	C671.217468,838.710266 671.935242,839.361023 672.597900,840.192871 
	C673.567566,839.634644 674.297852,839.255859 674.986206,838.812012 
	C702.958130,820.780090 728.824707,800.150269 751.668823,775.899597 
	C765.721924,760.981201 778.757568,745.215149 789.723572,727.018433 
	C808.091370,700.251465 821.899963,671.241455 831.698853,640.358032 
	C834.743225,630.763184 836.594849,620.789978 839.430054,610.402466 
	C842.214661,594.916016 845.658264,579.510864 847.582764,563.918213 
	C849.227783,550.590149 850.065247,537.012329 849.569031,523.607544 
	C848.931030,506.373932 847.539856,489.048645 844.738403,472.048706 
	C842.003845,455.454651 837.085754,439.220428 833.099365,422.047302 
	C826.968018,400.187012 818.288147,379.337708 807.856201,359.217926 
	C782.726868,310.751892 747.465820,270.835449 704.350098,237.723694 
	C694.269653,229.982147 683.394836,223.274918 672.154968,215.592499 
	C645.894653,267.591644 620.316101,318.240723 594.131348,368.431946 
	C593.168701,366.882355 592.088257,365.392944 591.261597,363.773926 
	C582.402954,346.424774 573.584412,329.055145 564.705322,311.006470 
	C539.303040,259.901306 513.904663,208.794174 488.476990,157.701630 
	C487.798096,156.337494 486.801270,155.131592 485.368347,152.970703 
	C481.548004,159.675491 478.007507,165.287048 475.042847,171.187897 
	C451.958221,217.135651 428.980530,263.137146 406.008057,309.141144 
	C405.602570,309.953094 405.671204,311.001831 405.072906,312.533112 
	C401.468811,319.221344 397.761475,325.856384 394.283783,332.609680 
	C388.463104,343.912750 382.789032,355.291260 376.746826,365.968109 
	C372.445282,359.053802 367.569550,352.427002 363.939331,345.176575 
	C346.050110,309.447235 328.537781,273.529388 310.776917,237.735413 
	C307.109039,230.343369 302.949158,223.195419 298.932220,215.780273 
	C297.072540,216.761749 295.893463,217.358490 294.737854,217.997681 
	C271.811493,230.678299 251.889801,247.413422 232.962921,265.214752 
	C197.419479,298.644470 170.590912,338.413239 151.454956,383.159332 
	C144.430527,399.584717 139.732651,417.005096 133.504837,434.548492 
	C123.252594,472.074554 119.194031,510.179291 121.818123,549.072998 
	C123.466858,573.510315 127.483910,597.476196 133.620926,621.970520 
	C140.302643,647.950989 149.733307,672.920593 162.658585,696.401428 
	C169.677673,709.152771 178.091141,721.136597 185.997757,734.115112 
	C215.622330,777.474670 253.400528,812.073059 298.891022,839.869568 
	C314.090973,809.467896 328.948669,779.750793 344.189880,749.440186 
	C354.784149,728.893372 365.378387,708.346619 376.589447,688.173767 
	C384.708405,703.993225 392.817719,719.817627 400.956268,735.627014 
	C402.238312,738.117371 403.652557,740.539795 405.082825,743.711548 
	C431.541779,796.796448 457.376953,850.200134 485.476532,903.626953 
	C486.751770,901.455994 487.289246,900.651123 487.719696,899.792664 
	C511.372070,852.613281 535.017517,805.430298 558.646545,758.239258 
	C559.161011,757.211792 559.477600,756.085266 560.394104,754.538391 
	C571.613586,732.954468 582.833069,711.370605 594.698975,690.085693 
	C595.564331,691.502197 596.513855,692.874695 597.282104,694.342041 
	C605.228699,709.518311 613.145996,724.710022 621.033875,740.564941 
z"/>
<path fill="#902DCA" opacity="1.000000" stroke="none" 
	d="
M133.973511,433.971588 
	C139.732651,417.005096 144.430527,399.584717 151.454956,383.159332 
	C170.590912,338.413239 197.419479,298.644470 232.962921,265.214752 
	C251.889801,247.413422 271.811493,230.678299 294.737854,217.997681 
	C295.893463,217.358490 297.072540,216.761749 298.932220,215.780273 
	C302.949158,223.195419 307.109039,230.343369 310.776917,237.735413 
	C328.537781,273.529388 346.050110,309.447235 363.939331,345.176575 
	C367.569550,352.427002 372.445282,359.053802 376.941620,366.685486 
	C377.255280,377.133484 381.299683,385.169800 387.924316,392.483337 
	C392.708740,403.498779 397.382263,414.171234 402.095001,425.081299 
	C402.254913,425.634338 402.466217,425.867737 402.902100,426.168762 
	C403.036163,426.318420 403.079071,426.717957 403.048828,427.132080 
	C405.674011,436.468781 408.329437,445.391296 411.311768,455.412323 
	C405.138580,453.335144 400.072327,451.630432 394.789642,449.658569 
	C360.751465,381.303894 326.929688,313.216400 292.765167,244.438889 
	C225.769943,292.550507 179.321335,354.142761 156.541992,433.212402 
	C156.269318,433.994080 156.206100,434.567139 156.182373,435.151215 
	C156.221832,435.162262 156.265854,435.231415 155.936279,435.320557 
	C154.775208,436.840118 153.934647,438.265320 153.113739,439.701813 
	C149.164810,446.611816 144.612152,452.763947 135.404831,453.841339 
	C134.916840,447.066803 134.445190,440.519196 133.973511,433.971588 
z"/>
<path fill="#902DCA" opacity="1.000000" stroke="none" 
	d="
M594.737549,368.889771 
	C620.316101,318.240723 645.894653,267.591644 672.154968,215.592499 
	C683.394836,223.274918 694.269653,229.982147 704.350098,237.723694 
	C747.465820,270.835449 782.726868,310.751892 807.856201,359.217926 
	C818.288147,379.337708 826.968018,400.187012 833.070190,422.916321 
	C833.040955,430.046417 833.040955,436.307465 833.040955,442.436829 
	C824.446655,443.515015 822.789185,442.534851 819.812500,435.621613 
	C817.270996,429.719116 814.588257,423.877411 811.985168,418.010712 
	C812.002319,418.012634 811.989075,418.043121 812.008362,417.713135 
	C811.742065,416.601044 811.456543,415.819000 810.994995,414.704803 
	C810.254028,412.635284 809.766235,410.868256 809.112732,409.164825 
	C792.957214,367.056458 770.584534,328.788269 739.155701,296.136292 
	C722.620972,278.958160 705.606689,262.334137 685.844360,248.753220 
	C682.578918,246.509155 680.706787,247.235001 678.885986,249.935364 
	C677.029175,252.689209 675.215759,255.507889 673.736450,258.474274 
	C668.459412,269.055695 663.412964,279.752075 658.135193,290.333069 
	C632.560669,341.605286 606.939270,392.854095 580.989014,444.191162 
	C573.260864,451.703552 564.547668,453.852844 554.652039,450.493103 
	C562.861023,433.707092 570.983032,417.288544 579.011841,400.824554 
	C580.078247,398.637695 580.671082,396.219910 581.681641,393.657501 
	C586.165833,385.233887 590.451660,377.061829 594.737549,368.889771 
z"/>
<path fill="#8226D8" opacity="1.000000" stroke="none" 
	d="
M405.518616,311.940094 
	C405.671204,311.001831 405.602570,309.953094 406.008057,309.141144 
	C428.980530,263.137146 451.958221,217.135651 475.042847,171.187897 
	C478.007507,165.287048 481.548004,159.675491 485.368347,152.970703 
	C486.801270,155.131592 487.798096,156.337494 488.476990,157.701630 
	C513.904663,208.794174 539.303040,259.901306 564.341003,311.430481 
	C557.120056,313.287598 550.263367,314.720673 543.128052,315.909180 
	C538.006775,306.060608 533.164246,296.456604 528.279907,286.490356 
	C524.636108,278.875977 521.034058,271.623901 517.390747,264.037292 
	C508.305145,245.745544 499.260864,227.788269 490.172241,209.479965 
	C488.498077,206.335541 486.868317,203.542130 484.666016,199.767441 
	C482.013672,205.057297 479.834412,209.403656 477.398621,213.985779 
	C472.160736,224.358459 467.149323,234.480774 462.206879,244.636673 
	C457.780121,253.732941 453.429443,262.866180 448.799438,272.222961 
	C447.270416,274.920502 445.987122,277.378174 444.429993,280.062378 
	C439.735168,289.650970 435.350372,299.030518 430.860352,308.359406 
	C430.041504,310.060760 428.793396,311.555542 427.312317,313.261017 
	C419.760376,312.897614 412.639496,312.418854 405.518616,311.940094 
z"/>
<path fill="#DC5B74" opacity="1.000000" stroke="none" 
	d="
M559.886475,755.004883 
	C559.477600,756.085266 559.161011,757.211792 558.646545,758.239258 
	C535.017517,805.430298 511.372070,852.613281 487.719696,899.792664 
	C487.289246,900.651123 486.751770,901.455994 485.476532,903.626953 
	C457.376953,850.200134 431.541779,796.796448 405.325806,743.089355 
	C405.707642,741.831421 405.765503,741.163879 405.999451,740.565247 
	C406.965210,738.094055 407.696350,733.770447 409.041962,733.563599 
	C412.138336,733.087585 415.582581,734.481750 418.798981,735.415527 
	C419.774414,735.698669 420.478607,736.947083 421.285553,737.774353 
	C424.243225,740.806213 427.191833,743.846863 430.120361,746.912964 
	C430.096863,746.941650 430.051483,746.884521 430.107117,747.110229 
	C430.292084,747.627625 430.489990,747.861084 431.026794,748.249756 
	C449.183167,784.040466 467.069214,819.617859 485.519257,856.317078 
	C487.483307,852.739685 488.823486,850.490662 489.984741,848.152893 
	C498.719757,830.568176 507.360718,812.936523 516.148499,795.378296 
	C523.586975,780.516052 531.182617,765.732422 539.115601,750.971130 
	C546.310486,752.353821 553.098511,753.679382 559.886475,755.004883 
z"/>
<path fill="#D75778" opacity="1.000000" stroke="none" 
	d="
M789.155212,727.439758 
	C778.757568,745.215149 765.721924,760.981201 751.668823,775.899597 
	C728.824707,800.150269 702.958130,820.780090 674.986206,838.812012 
	C674.297852,839.255859 673.567566,839.634644 672.597900,840.192871 
	C671.935242,839.361023 671.217468,838.710266 670.803101,837.903625 
	C654.989868,807.122070 639.203247,776.326721 623.423218,745.528137 
	C623.121643,744.939514 622.940247,744.289307 623.115601,743.365601 
	C629.327148,751.135925 637.955139,750.633240 646.832458,751.056152 
	C646.308655,749.464600 646.063904,748.338989 645.585327,747.323608 
	C637.277588,729.699219 628.858398,712.126648 620.661011,694.451233 
	C618.168518,689.076843 616.270813,683.426636 614.428467,678.011780 
	C619.281067,686.441223 624.045837,694.641235 628.287354,703.103638 
	C643.336060,733.127380 658.188293,763.249512 673.162292,793.310852 
	C675.512512,798.029236 678.107849,802.625671 680.778076,807.631226 
	C682.425964,806.688538 683.810791,806.125244 684.922791,805.224854 
	C696.409485,795.925476 708.151489,786.911926 719.239990,777.156677 
	C737.905457,760.735474 754.319153,742.198730 769.126343,721.922363 
	C776.007507,719.418030 782.508545,716.920410 789.155212,714.366821 
	C789.155212,719.598022 789.155212,723.518860 789.155212,727.439758 
z"/>
<path fill="#D75778" opacity="1.000000" stroke="none" 
	d="
M343.806396,750.033691 
	C328.948669,779.750793 314.090973,809.467896 298.891022,839.869568 
	C253.400528,812.073059 215.622330,777.474670 185.969391,733.331421 
	C185.742111,730.279785 185.543198,728.011841 185.279648,725.006958 
	C187.895767,725.006958 190.327744,725.095032 192.751160,724.988220 
	C197.498199,724.779175 202.240448,724.461426 207.266388,724.343994 
	C230.816132,757.199646 258.536224,785.334412 292.373596,807.730042 
	C293.351654,806.327332 294.235748,805.339844 294.806976,804.196167 
	C299.711945,794.375732 304.586212,784.539673 309.417938,774.682983 
	C313.799408,765.744751 318.116119,756.774902 322.931824,747.800659 
	C330.203613,748.532715 337.005005,749.283203 343.806396,750.033691 
z"/>
<path fill="#B040A5" opacity="1.000000" stroke="none" 
	d="
M133.739182,434.260040 
	C134.445190,440.519196 134.916840,447.066803 135.404831,453.841339 
	C144.612152,452.763947 149.164810,446.611816 153.113739,439.701813 
	C153.934647,438.265320 154.775208,436.840118 155.931976,435.725647 
	C155.951691,437.502655 155.603882,438.956329 155.347061,440.425873 
	C152.097763,459.018921 147.832153,477.509735 145.929840,496.240295 
	C144.240189,512.876892 145.005814,529.780640 145.039856,546.565674 
	C145.052933,553.012939 145.778442,559.493408 146.639679,565.896851 
	C148.294998,578.204346 150.278793,590.467712 152.087738,603.229431 
	C152.049149,611.585632 152.049149,619.461792 152.049149,627.641296 
	C146.061203,625.559204 139.753738,623.366028 133.446274,621.172852 
	C127.483910,597.476196 123.466858,573.510315 121.818123,549.072998 
	C119.194031,510.179291 123.252594,472.074554 133.739182,434.260040 
z"/>
<path fill="#B040A6" opacity="1.000000" stroke="none" 
	d="
M811.968018,418.008789 
	C814.588257,423.877411 817.270996,429.719116 819.812500,435.621613 
	C822.789185,442.534851 824.446655,443.515015 833.040955,442.436829 
	C833.040955,436.307465 833.040955,430.046417 833.083618,423.306793 
	C837.085754,439.220428 842.003845,455.454651 844.738403,472.048706 
	C847.539856,489.048645 848.931030,506.373932 849.569031,523.607544 
	C850.065247,537.012329 849.227783,550.590149 847.582764,563.918213 
	C845.658264,579.510864 842.214661,594.916016 838.910583,610.851318 
	C836.215942,614.418701 833.718079,617.365295 831.942566,620.696899 
	C829.392456,625.481750 825.457581,626.724731 819.741455,626.552429 
	C820.174927,618.881897 820.593140,611.480530 821.010864,603.657776 
	C823.436035,584.679077 826.628723,566.182922 828.117371,547.550659 
	C830.696411,515.271667 828.430115,483.217896 820.463806,451.700104 
	C817.625610,440.471222 814.799622,429.239288 811.968018,418.008789 
z"/>
<path fill="#C84E8A" opacity="1.000000" stroke="none" 
	d="
M560.140259,754.771606 
	C553.098511,753.679382 546.310486,752.353821 539.173340,750.602051 
	C561.155396,705.108643 583.485596,660.041016 605.832336,614.981567 
	C606.043884,614.554932 606.475464,614.237427 607.106934,614.105591 
	C607.670105,615.280334 608.013428,616.204285 608.177063,617.159058 
	C608.961609,621.736633 611.369385,622.911743 615.449707,620.718323 
	C616.318237,620.251404 617.231873,619.857910 618.061646,619.331055 
	C622.431396,616.556152 626.781006,613.749390 631.103699,611.320923 
	C627.320374,619.252991 623.391724,626.735474 619.866638,634.403442 
	C615.383728,644.155090 611.227844,654.057068 606.588379,663.953796 
	C598.571899,670.896851 595.861023,680.128296 594.052490,689.786682 
	C582.833069,711.370605 571.613586,732.954468 560.140259,754.771606 
z"/>
<path fill="#C74E8C" opacity="1.000000" stroke="none" 
	d="
M430.143860,746.884216 
	C427.191833,743.846863 424.243225,740.806213 421.285553,737.774353 
	C420.478607,736.947083 419.774414,735.698669 418.798981,735.415527 
	C415.582581,734.481750 412.138336,733.087585 409.041962,733.563599 
	C407.696350,733.770447 406.965210,738.094055 405.999451,740.565247 
	C405.765503,741.163879 405.707642,741.831421 405.287231,742.730408 
	C403.652557,740.539795 402.238312,738.117371 400.956268,735.627014 
	C392.817719,719.817627 384.708405,703.993225 376.253845,687.607849 
	C372.750458,679.140442 369.594086,671.234253 366.372101,663.354919 
	C366.247314,663.049744 365.492859,663.002136 365.008179,662.454224 
	C363.241119,657.090576 361.834686,651.956665 359.688660,647.153198 
	C354.133911,634.720093 348.253052,622.432617 342.868683,610.157532 
	C348.892792,613.783020 353.437561,619.272278 360.910919,621.045410 
	C359.224152,612.967896 357.715698,605.744446 356.467102,598.765137 
	C379.728607,644.966614 402.739838,690.919250 425.711365,736.891602 
	C427.338409,740.147766 428.673218,743.549927 430.143860,746.884216 
z"/>
<path fill="#C64C8C" opacity="1.000000" stroke="none" 
	d="
M133.533600,621.571655 
	C139.753738,623.366028 146.061203,625.559204 152.049149,627.641296 
	C152.049149,619.461792 152.049149,611.585632 152.327972,603.523560 
	C153.065277,605.098999 153.511154,606.863708 153.984100,608.621094 
	C161.155838,635.270569 170.306732,661.195557 183.683960,685.400635 
	C190.974823,698.593018 199.187668,711.275940 206.984680,724.188599 
	C202.240448,724.461426 197.498199,724.779175 192.751160,724.988220 
	C190.327744,725.095032 187.895767,725.006958 185.279648,725.006958 
	C185.543198,728.011841 185.742111,730.279785 185.908356,733.007202 
	C178.091141,721.136597 169.677673,709.152771 162.658585,696.401428 
	C149.733307,672.920593 140.302643,647.950989 133.533600,621.571655 
z"/>
<path fill="#C64C8C" opacity="1.000000" stroke="none" 
	d="
M821.011414,604.079102 
	C820.593140,611.480530 820.174927,618.881897 819.741455,626.552429 
	C825.457581,626.724731 829.392456,625.481750 831.942566,620.696899 
	C833.718079,617.365295 836.215942,614.418701 838.691833,611.145081 
	C836.594849,620.789978 834.743225,630.763184 831.698853,640.358032 
	C821.899963,671.241455 808.091370,700.251465 789.439392,727.229126 
	C789.155212,723.518860 789.155212,719.598022 789.155212,714.366821 
	C782.508545,716.920410 776.007507,719.418030 769.226196,721.583984 
	C785.557068,697.203003 798.861328,671.433655 808.483337,643.845703 
	C813.058105,630.729248 816.859619,617.343079 821.011414,604.079102 
z"/>
<path fill="#661212" opacity="1.000000" stroke="none" 
	d="
M365.031860,662.834473 
	C365.492859,663.002136 366.247314,663.049744 366.372101,663.354919 
	C369.594086,671.234253 372.750458,679.140442 375.945435,687.420898 
	C365.378387,708.346619 354.784149,728.893372 343.998138,749.736938 
	C337.005005,749.283203 330.203613,748.532715 323.005310,747.432129 
	C336.749573,718.999512 350.890717,690.916992 365.031860,662.834473 
z"/>
<path fill="#6C1618" opacity="1.000000" stroke="none" 
	d="
M405.295776,312.236603 
	C412.639496,312.418854 419.760376,312.897614 427.297089,313.621155 
	C422.195374,325.937683 416.677795,338.009430 410.839661,350.197693 
	C408.730469,353.551880 406.941864,356.789520 404.897888,360.275055 
	C399.032837,371.062073 393.423096,381.601196 387.813416,392.140320 
	C381.299683,385.169800 377.255280,377.133484 377.094849,367.020447 
	C382.789032,355.291260 388.463104,343.912750 394.283783,332.609680 
	C397.761475,325.856384 401.468811,319.221344 405.295776,312.236603 
z"/>
<path fill="#661212" opacity="1.000000" stroke="none" 
	d="
M594.375732,689.936157 
	C595.861023,680.128296 598.571899,670.896851 606.749939,664.270020 
	C609.119629,668.370422 610.985229,672.214172 612.881042,676.369812 
	C613.311157,677.105408 613.710999,677.529175 614.088013,677.945129 
	C614.065186,677.937317 614.100769,677.902710 614.100769,677.902710 
	C616.270813,683.426636 618.168518,689.076843 620.661011,694.451233 
	C628.858398,712.126648 637.277588,729.699219 645.585327,747.323608 
	C646.063904,748.338989 646.308655,749.464600 646.832458,751.056152 
	C637.955139,750.633240 629.327148,751.135925 623.176270,742.980225 
	C622.823975,742.897034 622.711975,742.704041 622.745239,742.256897 
	C622.209534,741.172302 621.640442,740.534851 621.071411,739.897400 
	C613.145996,724.710022 605.228699,709.518311 597.282104,694.342041 
	C596.513855,692.874695 595.564331,691.502197 594.375732,689.936157 
z"/>
<path fill="#460D0F" opacity="1.000000" stroke="none" 
	d="
M543.406738,316.153748 
	C550.263367,314.720673 557.120056,313.287598 564.365723,311.772827 
	C573.584412,329.055145 582.402954,346.424774 591.261597,363.773926 
	C592.088257,365.392944 593.168701,366.882355 594.434448,368.660858 
	C590.451660,377.061829 586.165833,385.233887 581.647461,393.287354 
	C575.742065,382.052155 570.069031,370.935516 564.335999,359.470520 
	C562.893555,356.738220 561.511169,354.354340 560.118164,351.611237 
	C559.319580,349.600525 558.529907,347.949829 557.743896,346.297394 
	C552.964417,336.249725 548.185730,326.201660 543.406738,316.153748 
z"/>
<path fill="#D75778" opacity="1.000000" stroke="none" 
	d="
M621.052612,740.231201 
	C621.640442,740.534851 622.209534,741.172302 622.728516,742.146606 
	C622.130249,741.843933 621.582092,741.204407 621.052612,740.231201 
z"/>
<path fill="#FFFEFF" opacity="1.000000" stroke="none" 
	d="
M612.850830,676.057983 
	C610.985229,672.214172 609.119629,668.370422 607.092468,664.210449 
	C611.227844,654.057068 615.383728,644.155090 619.866638,634.403442 
	C623.391724,626.735474 627.320374,619.252991 631.151062,611.222412 
	C631.232361,610.756653 631.102600,610.578613 631.380188,610.402954 
	C631.814026,609.828308 631.970276,609.429260 632.380859,608.813660 
	C640.934204,592.546021 649.175049,576.464172 657.626953,560.493958 
	C658.424500,558.986938 660.548706,558.181946 662.236694,557.342407 
	C668.281738,568.148376 674.147034,578.663086 680.065063,589.515991 
	C688.080872,604.661926 696.044006,619.469604 704.007080,634.277283 
	C704.639038,634.142273 705.270935,634.007202 705.902893,633.872131 
	C724.774841,593.524109 734.417908,551.248535 729.993347,506.456268 
	C727.041626,476.574432 719.653015,447.772858 704.890320,420.325806 
	C703.203857,422.919434 701.893982,424.618622 700.915039,426.490875 
	C694.594116,438.578918 688.223083,450.643188 682.094482,462.828918 
	C657.783569,511.167480 633.551270,559.545654 609.313965,607.921143 
	C608.351990,609.840942 607.635315,611.883545 606.804321,613.868958 
	C606.475464,614.237427 606.043884,614.554932 605.832336,614.981567 
	C583.485596,660.041016 561.155396,705.108643 538.766479,750.544922 
	C531.182617,765.732422 523.586975,780.516052 516.148499,795.378296 
	C507.360718,812.936523 498.719757,830.568176 489.984741,848.152893 
	C488.823486,850.490662 487.483307,852.739685 485.519257,856.317078 
	C467.069214,819.617859 449.183167,784.040466 431.010925,748.004272 
	C430.632538,747.190430 430.408142,746.970154 430.051483,746.884521 
	C430.051483,746.884521 430.096863,746.941650 430.120361,746.912964 
	C428.673218,743.549927 427.338409,740.147766 425.711365,736.891602 
	C402.739838,690.919250 379.728607,644.966614 356.460938,598.622253 
	C356.194946,598.235229 355.975433,598.045349 355.966797,597.746338 
	C355.633789,596.974365 355.309448,596.501404 354.940308,595.668823 
	C352.551910,590.338440 350.260193,585.342590 347.856689,580.401001 
	C322.218903,527.689270 296.565186,474.985291 270.901825,422.286011 
	C270.304291,421.058960 269.543457,419.911438 268.640930,418.349854 
	C267.808319,419.456268 267.334381,419.931702 267.039459,420.500061 
	C247.687180,457.791809 240.667770,497.671844 242.422623,539.311218 
	C242.714264,546.231506 244.111404,553.105225 244.950958,560.432007 
	C244.930237,561.693665 244.871979,562.536438 244.994415,563.352051 
	C248.690613,587.975952 256.458984,611.323853 267.132843,633.752808 
	C267.359314,634.228760 267.987823,634.513245 268.946716,635.326111 
	C277.209534,618.380249 285.268585,601.852295 293.551941,585.068054 
	C299.455658,573.686279 305.135071,562.560791 311.081421,551.696777 
	C314.678894,557.480774 318.291107,562.855469 321.283997,568.555298 
	C328.510803,582.318298 335.448273,596.233337 342.502411,610.087036 
	C348.253052,622.432617 354.133911,634.720093 359.688660,647.153198 
	C361.834686,651.956665 363.241119,657.090576 365.008179,662.454224 
	C350.890717,690.916992 336.749573,718.999512 322.534912,747.450500 
	C318.116119,756.774902 313.799408,765.744751 309.417938,774.682983 
	C304.586212,784.539673 299.711945,794.375732 294.806976,804.196167 
	C294.235748,805.339844 293.351654,806.327332 292.373596,807.730042 
	C258.536224,785.334412 230.816132,757.199646 207.266403,724.343994 
	C199.187668,711.275940 190.974823,698.593018 183.683960,685.400635 
	C170.306732,661.195557 161.155838,635.270569 153.984100,608.621094 
	C153.511154,606.863708 153.065277,605.098999 152.366577,603.043579 
	C150.278793,590.467712 148.294998,578.204346 146.639679,565.896851 
	C145.778442,559.493408 145.052933,553.012939 145.039856,546.565674 
	C145.005814,529.780640 144.240189,512.876892 145.929840,496.240295 
	C147.832153,477.509735 152.097763,459.018921 155.347061,440.425873 
	C155.603882,438.956329 155.951691,437.502655 156.261536,435.636536 
	C156.265854,435.231415 156.221832,435.162262 156.429764,434.975830 
	C156.675598,434.194153 156.713516,433.598969 156.751434,433.003754 
	C179.321335,354.142761 225.769943,292.550507 292.765167,244.438889 
	C326.929688,313.216400 360.751465,381.303894 394.805786,450.028259 
	C398.061401,456.967377 401.024200,463.299438 404.117188,469.567261 
	C428.429321,518.834351 452.754272,568.095215 477.114014,617.338745 
	C479.640991,622.447083 482.420929,627.430298 485.894257,634.006653 
	C489.902954,627.424011 493.460419,622.428894 496.165253,617.008240 
	C519.729858,569.783875 543.173889,522.499084 566.573792,475.192749 
	C571.658386,464.913513 576.422668,454.475861 581.334473,444.111176 
	C606.939270,392.854095 632.560669,341.605286 658.135193,290.333069 
	C663.412964,279.752075 668.459412,269.055695 673.736450,258.474274 
	C675.215759,255.507889 677.029175,252.689209 678.885986,249.935364 
	C680.706787,247.235001 682.578918,246.509155 685.844360,248.753220 
	C705.606689,262.334137 722.620972,278.958160 739.155701,296.136292 
	C770.584534,328.788269 792.957214,367.056458 809.112732,409.164825 
	C809.766235,410.868256 810.254028,412.635284 810.953735,415.032654 
	C811.388611,416.476105 811.688843,417.259613 811.989075,418.043121 
	C811.989075,418.043121 812.002319,418.012634 811.985229,418.010712 
	C814.799622,429.239288 817.625610,440.471222 820.463806,451.700104 
	C828.430115,483.217896 830.696411,515.271667 828.117371,547.550659 
	C826.628723,566.182922 823.436035,584.679077 821.010864,603.657776 
	C816.859619,617.343079 813.058105,630.729248 808.483337,643.845703 
	C798.861328,671.433655 785.557068,697.203003 768.846069,721.590759 
	C754.319153,742.198730 737.905457,760.735474 719.239990,777.156677 
	C708.151489,786.911926 696.409485,795.925476 684.922791,805.224854 
	C683.810791,806.125244 682.425964,806.688538 680.778076,807.631226 
	C678.107849,802.625671 675.512512,798.029236 673.162292,793.310852 
	C658.188293,763.249512 643.336060,733.127380 628.287354,703.103638 
	C624.045837,694.641235 619.281067,686.441223 614.428467,678.011780 
	C614.100769,677.902710 614.065186,677.937317 614.151794,677.601318 
	C613.775879,676.862915 613.313354,676.460449 612.850830,676.057983 
z"/>
<path fill="#FEFEFE" opacity="1.000000" stroke="none" 
	d="
M387.924316,392.483337 
	C393.423096,381.601196 399.032837,371.062073 405.356140,360.281555 
	C429.512634,360.021698 452.955627,360.026123 476.398376,359.954742 
	C479.191376,359.946228 481.066681,360.096863 481.097382,363.819824 
	C481.183319,374.256744 481.924072,384.690277 481.925873,395.125214 
	C481.927612,405.060638 481.323151,414.996216 480.843933,425.263489 
	C480.120331,427.313690 479.692627,429.104126 478.931244,430.739136 
	C473.021820,443.429230 467.047943,456.089294 460.882690,469.050415 
	C454.758148,480.030945 448.844940,490.719696 442.578186,501.319489 
	C441.319427,499.862854 440.271423,498.568054 439.530640,497.116455 
	C430.532196,479.484222 421.622223,461.806732 412.589783,444.191986 
	C409.564850,438.292816 406.257385,432.538483 403.079071,426.717957 
	C403.079071,426.717957 403.036163,426.318420 402.895447,425.918060 
	C402.521759,425.293030 402.288757,425.068329 402.055786,424.843658 
	C397.382263,414.171234 392.708740,403.498779 387.924316,392.483337 
z"/>
<path fill="#B040A5" opacity="1.000000" stroke="none" 
	d="
M403.048828,427.132080 
	C406.257385,432.538483 409.564850,438.292816 412.589783,444.191986 
	C421.622223,461.806732 430.532196,479.484222 439.530640,497.116455 
	C440.271423,498.568054 441.319427,499.862854 442.579071,501.613586 
	C444.835815,507.013184 446.486053,512.146179 448.729919,517.004883 
	C450.203430,520.195557 452.534119,522.990295 454.532227,526.207397 
	C454.636963,526.610596 454.690399,526.768799 454.682983,527.320190 
	C462.332062,543.538879 470.041992,559.364197 477.807648,575.542603 
	C480.107056,579.985657 482.350769,584.075684 485.244141,589.350098 
	C487.006897,585.657471 488.169830,583.221497 489.585052,580.516968 
	C491.348114,577.494690 492.988556,574.803162 494.347321,571.976318 
	C500.353790,559.479797 506.279236,546.944336 512.512146,534.179199 
	C513.667297,531.632080 514.544373,529.328796 515.709473,526.876221 
	C519.688293,518.561646 523.379150,510.396240 527.345703,502.014130 
	C530.093445,497.304871 532.641479,492.852173 535.023254,488.312256 
	C541.564819,475.843201 548.036560,463.337555 554.535950,450.846405 
	C564.547668,453.852844 573.260864,451.703552 580.988953,444.191101 
	C576.422668,454.475861 571.658386,464.913513 566.573792,475.192749 
	C543.173889,522.499084 519.729858,569.783875 496.165253,617.008240 
	C493.460419,622.428894 489.902954,627.424011 485.894257,634.006653 
	C482.420929,627.430298 479.640991,622.447083 477.114014,617.338745 
	C452.754272,568.095215 428.429321,518.834351 404.117188,469.567261 
	C401.024200,463.299438 398.061401,456.967377 395.022186,450.295410 
	C400.072327,451.630432 405.138580,453.335144 411.311768,455.412323 
	C408.329437,445.391296 405.674011,436.468781 403.048828,427.132080 
z"/>
<path fill="#B040A5" opacity="1.000000" stroke="none" 
	d="
M156.541992,433.212402 
	C156.713516,433.598969 156.675598,434.194153 156.390289,434.964783 
	C156.206100,434.567139 156.269318,433.994080 156.541992,433.212402 
z"/>
<path fill="#B040A5" opacity="1.000000" stroke="none" 
	d="
M402.095001,425.081299 
	C402.288757,425.068329 402.521759,425.293030 402.761414,425.768372 
	C402.466217,425.867737 402.254913,425.634338 402.095001,425.081299 
z"/>
<path fill="#FEFEFE" opacity="1.000000" stroke="none" 
	d="
M554.652039,450.493103 
	C548.036560,463.337555 541.564819,475.843201 535.023254,488.312256 
	C532.641479,492.852173 530.093445,497.304871 527.020264,501.829987 
	C520.640442,490.771729 514.861694,479.680878 509.065155,468.240417 
	C502.266724,453.745514 495.486115,439.600281 488.756897,425.028900 
	C487.868896,416.581696 486.309937,408.573883 486.137848,400.536346 
	C485.890015,388.961304 486.876068,377.364471 486.866302,365.777313 
	C486.862518,361.314331 487.929871,359.836517 492.641296,359.873993 
	C516.557861,360.064178 540.477478,359.875122 564.395996,359.818909 
	C570.069031,370.935516 575.742065,382.052155 581.449158,393.538940 
	C580.671082,396.219910 580.078247,398.637695 579.011841,400.824554 
	C570.983032,417.288544 562.861023,433.707092 554.652039,450.493103 
z"/>
<path fill="#B040A6" opacity="1.000000" stroke="none" 
	d="
M812.008362,417.713135 
	C811.688843,417.259613 811.388611,416.476105 811.129639,415.364746 
	C811.456543,415.819000 811.742065,416.601044 812.008362,417.713135 
z"/>
<path fill="#FEFEFE" opacity="1.000000" stroke="none" 
	d="
M543.128052,315.909180 
	C548.185730,326.201660 552.964417,336.249725 557.743896,346.297394 
	C558.529907,347.949829 559.319580,349.600525 559.718933,351.649567 
	C558.381165,352.342590 557.444031,352.686646 556.481018,352.926392 
	C534.690369,358.350555 512.502991,355.219696 490.492188,355.801544 
	C489.356293,355.831573 487.320709,353.565247 487.135529,352.177124 
	C486.437317,346.942719 486.010559,341.626221 486.061493,336.346039 
	C486.240967,317.751251 486.617676,299.157715 487.088440,280.567993 
	C487.118774,279.370728 488.559631,277.202209 489.375427,277.187286 
	C497.760559,277.034241 506.176056,276.908020 514.527710,277.524567 
	C517.142334,277.717560 519.702759,280.011414 522.080688,281.645416 
	C524.303955,283.173126 526.252319,285.100922 528.321716,286.852600 
	C533.164246,296.456604 538.006775,306.060608 543.128052,315.909180 
z"/>
<path fill="#FFFEFF" opacity="1.000000" stroke="none" 
	d="
M411.160217,350.081177 
	C416.677795,338.009430 422.195374,325.937683 427.728210,313.505798 
	C428.793396,311.555542 430.041504,310.060760 430.860352,308.359406 
	C435.350372,299.030518 439.735168,289.650970 444.857117,280.106232 
	C455.901428,278.941711 466.249390,278.005280 476.585510,276.952942 
	C480.148224,276.590271 481.098236,278.085114 481.078461,281.501129 
	C480.954620,302.865997 481.018616,324.231934 481.019165,345.597534 
	C481.019226,347.592499 480.910431,349.593536 481.030945,351.580933 
	C481.189270,354.191589 480.026215,355.010376 477.497925,355.072693 
	C469.554352,355.268433 461.614960,355.963379 453.675995,355.932770 
	C443.407959,355.893188 433.113556,355.684021 422.888947,354.839844 
	C418.782043,354.500732 413.733124,354.890472 411.160217,350.081177 
z"/>
<path fill="#E8E2EA" opacity="1.000000" stroke="none" 
	d="
M410.839630,350.197693 
	C413.733124,354.890472 418.782043,354.500732 422.888947,354.839844 
	C433.113556,355.684021 443.407959,355.893188 453.675995,355.932770 
	C461.614960,355.963379 469.554352,355.268433 477.497925,355.072693 
	C480.026215,355.010376 481.189270,354.191589 481.030945,351.580933 
	C480.910431,349.593536 481.019226,347.592499 481.019165,345.597534 
	C481.018616,324.231934 480.954620,302.865997 481.078461,281.501129 
	C481.098236,278.085114 480.148224,276.590271 476.585510,276.952942 
	C466.249390,278.005280 455.901428,278.941711 445.130981,279.879761 
	C445.987122,277.378174 447.270416,274.920502 449.258179,272.219238 
	C459.048340,272.516022 468.144928,272.924957 477.213104,273.676270 
	C479.963684,273.904175 480.931427,272.939178 480.985687,270.506042 
	C481.067261,266.847198 481.122681,263.186462 481.106476,259.526917 
	C481.053040,247.459229 481.180389,235.383759 480.740997,223.329407 
	C480.623413,220.103073 478.732147,216.941376 477.655151,213.750015 
	C479.834412,209.403656 482.013672,205.057297 484.666016,199.767441 
	C486.868317,203.542130 488.498077,206.335541 489.856995,209.717041 
	C488.386780,217.436508 486.356049,224.546432 486.171509,231.703964 
	C485.847046,244.288101 486.730865,256.900146 486.925934,269.503296 
	C486.972565,272.516174 488.321991,273.110260 490.915253,273.054504 
	C496.401917,272.936584 501.892670,273.011810 507.381744,273.004608 
	C516.318420,272.992859 516.318420,272.991760 517.432007,264.371796 
	C521.034058,271.623901 524.636108,278.875977 528.279907,286.490356 
	C526.252319,285.100922 524.303955,283.173126 522.080688,281.645416 
	C519.702759,280.011414 517.142334,277.717560 514.527710,277.524567 
	C506.176056,276.908020 497.760559,277.034241 489.375427,277.187286 
	C488.559631,277.202209 487.118774,279.370728 487.088440,280.567993 
	C486.617676,299.157715 486.240967,317.751251 486.061493,336.346039 
	C486.010559,341.626221 486.437317,346.942719 487.135529,352.177124 
	C487.320709,353.565247 489.356293,355.831573 490.492188,355.801544 
	C512.502991,355.219696 534.690369,358.350555 556.481018,352.926392 
	C557.444031,352.686646 558.381165,352.342590 559.729492,352.008759 
	C561.511169,354.354340 562.893555,356.738220 564.335999,359.470520 
	C540.477478,359.875122 516.557861,360.064178 492.641296,359.873993 
	C487.929871,359.836517 486.862518,361.314331 486.866302,365.777313 
	C486.876068,377.364471 485.890015,388.961304 486.137848,400.536346 
	C486.309937,408.573883 487.868896,416.581696 488.334351,424.990723 
	C485.568665,425.229675 483.276947,425.080688 480.985199,424.931702 
	C481.323151,414.996216 481.927612,405.060638 481.925873,395.125214 
	C481.924072,384.690277 481.183319,374.256744 481.097382,363.819824 
	C481.066681,360.096863 479.191376,359.946228 476.398376,359.954742 
	C452.955627,360.026123 429.512634,360.021698 405.611511,360.033630 
	C406.941864,356.789520 408.730469,353.551880 410.839630,350.197693 
z"/>
<path fill="#FEFEFE" opacity="1.000000" stroke="none" 
	d="
M517.390747,264.037292 
	C516.318420,272.991760 516.318420,272.992859 507.381744,273.004608 
	C501.892670,273.011810 496.401917,272.936584 490.915253,273.054504 
	C488.321991,273.110260 486.972565,272.516174 486.925934,269.503296 
	C486.730865,256.900146 485.847046,244.288101 486.171509,231.703964 
	C486.356049,224.546432 488.386780,217.436508 489.901367,210.068054 
	C499.260864,227.788269 508.305145,245.745544 517.390747,264.037292 
z"/>
<path fill="#FDFBFC" opacity="1.000000" stroke="none" 
	d="
M477.398621,213.985779 
	C478.732147,216.941376 480.623413,220.103073 480.740997,223.329407 
	C481.180389,235.383759 481.053040,247.459229 481.106476,259.526917 
	C481.122681,263.186462 481.067261,266.847198 480.985687,270.506042 
	C480.931427,272.939178 479.963684,273.904175 477.213104,273.676270 
	C468.144928,272.924957 459.048340,272.516022 449.503937,271.979370 
	C453.429443,262.866180 457.780121,253.732941 462.206879,244.636673 
	C467.149323,234.480774 472.160736,224.358459 477.398621,213.985779 
z"/>
<path fill="#C74E8C" opacity="1.000000" stroke="none" 
	d="
M430.107117,747.110229 
	C430.408142,746.970154 430.632538,747.190430 430.740601,747.790894 
	C430.489990,747.861084 430.292084,747.627625 430.107117,747.110229 
z"/>
<path fill="#AF3FA5" opacity="1.000000" stroke="none" 
	d="
M662.056946,557.051025 
	C660.548706,558.181946 658.424500,558.986938 657.626953,560.493958 
	C649.175049,576.464172 640.934204,592.546021 632.098389,608.981934 
	C631.408630,609.770691 631.255615,610.174622 631.102600,610.578613 
	C631.102600,610.578613 631.232361,610.756653 631.184998,610.855103 
	C626.781006,613.749390 622.431396,616.556152 618.061646,619.331055 
	C617.231873,619.857910 616.318237,620.251404 615.449707,620.718323 
	C611.369385,622.911743 608.961609,621.736633 608.177063,617.159058 
	C608.013428,616.204285 607.670105,615.280334 607.106934,614.105591 
	C607.635315,611.883545 608.351990,609.840942 609.313965,607.921143 
	C633.551270,559.545654 657.783569,511.167480 682.094482,462.828918 
	C688.223083,450.643188 694.594116,438.578918 700.915039,426.490875 
	C701.893982,424.618622 703.203857,422.919434 704.890320,420.325806 
	C719.653015,447.772858 727.041626,476.574432 729.993347,506.456268 
	C734.417908,551.248535 724.774841,593.524109 705.902893,633.872131 
	C705.270935,634.007202 704.639038,634.142273 704.007080,634.277283 
	C696.044006,619.469604 688.080872,604.661926 680.473267,589.415771 
	C686.365845,587.965942 691.922119,587.043579 697.422058,585.859375 
	C698.390747,585.650818 699.123718,584.347046 700.275696,583.302490 
	C702.763550,572.703796 706.353943,562.412781 706.805542,551.985901 
	C707.586731,533.947815 706.825806,515.804626 705.891479,497.747955 
	C705.463379,489.474670 703.088745,481.302124 701.596863,473.083893 
	C701.078430,473.050690 700.559998,473.017517 700.041565,472.984344 
	C697.071594,478.124268 693.991455,483.204193 691.153076,488.415771 
	C683.749634,502.009460 676.491272,515.677490 672.727295,531.106934 
	C664.444519,538.036865 661.097595,546.678345 662.056946,557.051025 
z"/>
<path fill="#AD3EA9" opacity="1.000000" stroke="none" 
	d="
M355.975433,598.045349 
	C355.975433,598.045349 356.194946,598.235229 356.201111,598.378052 
	C357.715698,605.744446 359.224152,612.967896 360.910919,621.045410 
	C353.437561,619.272278 348.892792,613.783020 342.868683,610.157532 
	C335.448273,596.233337 328.510803,582.318298 321.283997,568.555298 
	C318.291107,562.855469 314.678894,557.480774 311.036316,551.378113 
	C306.323517,543.551147 301.922760,536.304382 297.433899,528.675232 
	C288.127228,509.458374 278.912598,490.621918 269.656067,471.806061 
	C269.502472,471.493896 268.838928,471.432617 268.232849,471.178619 
	C261.449799,500.928680 258.805450,530.734131 262.900299,561.080322 
	C255.672302,566.973755 255.175674,566.997620 247.879379,561.952026 
	C246.925217,561.292236 245.958557,560.650513 244.997681,560.000427 
	C244.111404,553.105225 242.714264,546.231506 242.422623,539.311218 
	C240.667770,497.671844 247.687180,457.791809 267.039459,420.500061 
	C267.334381,419.931702 267.808319,419.456268 268.640930,418.349854 
	C269.543457,419.911438 270.304291,421.058960 270.901825,422.286011 
	C296.565186,474.985291 322.218903,527.689270 347.856689,580.401001 
	C350.260193,585.342590 352.551910,590.338440 354.958862,595.966675 
	C355.339966,597.097900 355.657715,597.571594 355.975433,598.045349 
z"/>
<path fill="#D75778" opacity="1.000000" stroke="none" 
	d="
M612.881042,676.369812 
	C613.313354,676.460449 613.775879,676.862915 614.174683,677.609131 
	C613.710999,677.529175 613.311157,677.105408 612.881042,676.369812 
z"/>
<path fill="#BA4599" opacity="1.000000" stroke="none" 
	d="
M244.950958,560.432007 
	C245.958557,560.650513 246.925217,561.292236 247.879379,561.952026 
	C255.175674,566.997620 255.672302,566.973755 263.125916,561.370911 
	C265.726532,569.332458 267.772827,577.138855 270.070862,585.314819 
	C272.098206,585.862854 273.880737,586.243286 275.648193,586.183044 
	C281.544250,585.981934 287.434937,585.622864 293.327637,585.324341 
	C285.268585,601.852295 277.209534,618.380249 268.946716,635.326111 
	C267.987823,634.513245 267.359314,634.228760 267.132843,633.752808 
	C256.458984,611.323853 248.690613,587.975952 244.994415,563.352051 
	C244.871979,562.536438 244.930237,561.693665 244.950958,560.432007 
z"/>
<path fill="#5A0F10" opacity="1.000000" stroke="none" 
	d="
M293.551971,585.067993 
	C287.434937,585.622864 281.544250,585.981934 275.648193,586.183044 
	C273.880737,586.243286 272.098206,585.862854 270.193787,584.970459 
	C279.217285,565.856934 288.369629,547.457275 297.521973,529.057556 
	C301.922760,536.304382 306.323517,543.551147 310.769348,551.116699 
	C305.135071,562.560791 299.455658,573.686279 293.551971,585.067993 
z"/>
<path fill="#661212" opacity="1.000000" stroke="none" 
	d="
M662.236694,557.342407 
	C661.097595,546.678345 664.444519,538.036865 672.932251,531.382324 
	C673.987244,532.522095 674.558289,533.526672 675.081299,534.555786 
	C683.379700,550.885010 691.671875,567.217407 699.965515,583.549072 
	C699.123718,584.347046 698.390747,585.650818 697.422058,585.859375 
	C691.922119,587.043579 686.365845,587.965942 680.420532,589.077576 
	C674.147034,578.663086 668.281738,568.148376 662.236694,557.342407 
z"/>
<path fill="#C74E8C" opacity="1.000000" stroke="none" 
	d="
M355.966797,597.746338 
	C355.657715,597.571594 355.339966,597.097900 355.003662,596.326294 
	C355.309448,596.501404 355.633789,596.974365 355.966797,597.746338 
z"/>
<path fill="#C84E8A" opacity="1.000000" stroke="none" 
	d="
M631.380188,610.402954 
	C631.255615,610.174622 631.408630,609.770691 631.843994,609.198425 
	C631.970276,609.429260 631.814026,609.828308 631.380188,610.402954 
z"/>
<path fill="#A339B1" opacity="1.000000" stroke="none" 
	d="
M480.843933,425.263489 
	C483.276947,425.080688 485.568665,425.229675 488.282959,425.416840 
	C495.486115,439.600281 502.266724,453.745514 508.621643,468.324066 
	C501.575714,469.491333 494.955444,470.225311 487.903870,470.901672 
	C485.489014,470.890411 483.505463,470.936829 481.097443,470.854614 
	C474.146667,470.070190 467.620361,469.414429 461.094025,468.758667 
	C467.047943,456.089294 473.021820,443.429230 478.931244,430.739136 
	C479.692627,429.104126 480.120331,427.313690 480.843933,425.263489 
z"/>
<path fill="#5A0F10" opacity="1.000000" stroke="none" 
	d="
M460.882690,469.050415 
	C467.620361,469.414429 474.146667,470.070190 480.987671,471.232361 
	C479.940247,475.066406 478.578156,478.394073 476.990723,481.955139 
	C470.967102,494.070251 465.168793,505.951904 459.119629,518.037048 
	C457.406158,520.814453 455.943542,523.388367 454.480927,525.962280 
	C452.534119,522.990295 450.203430,520.195557 448.729919,517.004883 
	C446.486053,512.146179 444.835815,507.013184 442.932617,501.702576 
	C448.844940,490.719696 454.758148,480.030945 460.882690,469.050415 
z"/>
<path fill="#5A0F10" opacity="1.000000" stroke="none" 
	d="
M488.335144,470.959290 
	C494.955444,470.225311 501.575714,469.491333 508.639465,468.673706 
	C514.861694,479.680878 520.640442,490.771729 526.744629,502.046722 
	C523.379150,510.396240 519.688293,518.561646 515.513184,526.568604 
	C513.728149,524.261658 512.427429,522.113037 511.146851,519.588745 
	C504.184479,505.443420 497.201996,491.673767 490.187378,477.541199 
	C489.548584,475.105286 488.941864,473.032288 488.335144,470.959290 
z"/>
<path fill="#FDFBFC" opacity="1.000000" stroke="none" 
	d="
M512.234070,534.422974 
	C506.279236,546.944336 500.353790,559.479797 494.347321,571.976318 
	C492.988556,574.803162 491.348114,577.494690 489.410339,580.075256 
	C488.135437,574.880371 486.887238,569.888000 486.518066,564.831421 
	C485.580658,551.992065 485.251495,539.131592 487.498199,525.857910 
	C492.535583,525.559448 497.294891,525.099304 502.059662,525.032776 
	C511.552338,524.900085 511.553589,524.989380 512.234070,534.422974 
z"/>
<path fill="#E8E2EA" opacity="1.000000" stroke="none" 
	d="
M512.512146,534.179199 
	C511.553589,524.989380 511.552338,524.900085 502.059662,525.032776 
	C497.294891,525.099304 492.535583,525.559448 487.498199,525.857910 
	C485.251495,539.131592 485.580658,551.992065 486.518066,564.831421 
	C486.887238,569.888000 488.135437,574.880371 489.158020,580.343750 
	C488.169830,583.221497 487.006897,585.657471 485.244141,589.350098 
	C482.350769,584.075684 480.107056,579.985657 478.129883,575.299133 
	C479.320190,568.856506 480.802429,563.033447 481.045380,557.159119 
	C481.479980,546.651062 481.167816,536.112000 481.167816,524.783203 
	C471.776123,525.545166 463.259979,526.236084 454.743866,526.926941 
	C454.690399,526.768799 454.636963,526.610596 454.532257,526.207397 
	C455.943542,523.388367 457.406158,520.814453 459.532959,518.159424 
	C466.848175,519.801453 473.499176,521.524658 480.784180,523.412109 
	C482.691742,509.814697 482.811310,497.163239 479.960815,484.577209 
	C479.711151,483.474731 478.161743,482.666565 477.216064,481.721680 
	C478.578156,478.394073 479.940247,475.066406 481.412109,471.360992 
	C483.505463,470.936829 485.489014,470.890411 487.903870,470.901672 
	C488.941864,473.032288 489.548584,475.105286 489.802063,477.621826 
	C489.014984,478.516266 488.317322,478.901215 488.185760,479.427612 
	C484.820038,492.893036 485.788208,506.594971 486.248840,520.244141 
	C486.275391,521.031677 488.776337,522.465698 490.022156,522.361511 
	C497.074493,521.771362 504.095215,520.803650 511.126678,519.964478 
	C512.427429,522.113037 513.728149,524.261658 515.225159,526.717896 
	C514.544373,529.328796 513.667297,531.632080 512.512146,534.179199 
z"/>
<path fill="#FDFBFC" opacity="1.000000" stroke="none" 
	d="
M454.682983,527.320190 
	C463.259979,526.236084 471.776123,525.545166 481.167816,524.783203 
	C481.167816,536.112000 481.479980,546.651062 481.045380,557.159119 
	C480.802429,563.033447 479.320190,568.856506 478.074158,574.946167 
	C470.041992,559.364197 462.332062,543.538879 454.682983,527.320190 
z"/>
<path fill="#FDFBFC" opacity="1.000000" stroke="none" 
	d="
M700.275696,583.302490 
	C691.671875,567.217407 683.379700,550.885010 675.081299,534.555786 
	C674.558289,533.526672 673.987244,532.522095 673.233643,531.230713 
	C676.491272,515.677490 683.749634,502.009460 691.153076,488.415771 
	C693.991455,483.204193 697.071594,478.124268 700.041565,472.984344 
	C700.559998,473.017517 701.078430,473.050690 701.596863,473.083893 
	C703.088745,481.302124 705.463379,489.474670 705.891479,497.747955 
	C706.825806,515.804626 707.586731,533.947815 706.805542,551.985901 
	C706.353943,562.412781 702.763550,572.703796 700.275696,583.302490 
z"/>
<path fill="#FDFBFC" opacity="1.000000" stroke="none" 
	d="
M297.433899,528.675232 
	C288.369629,547.457275 279.217285,565.856934 269.942017,584.600952 
	C267.772827,577.138855 265.726532,569.332458 263.454651,561.235474 
	C258.805450,530.734131 261.449799,500.928680 268.232849,471.178619 
	C268.838928,471.432617 269.502472,471.493896 269.656067,471.806061 
	C278.912598,490.621918 288.127228,509.458374 297.433899,528.675232 
z"/>
<path fill="#FDFBFC" opacity="1.000000" stroke="none" 
	d="
M476.990723,481.955139 
	C478.161743,482.666565 479.711151,483.474731 479.960815,484.577209 
	C482.811310,497.163239 482.691742,509.814697 480.784180,523.412109 
	C473.499176,521.524658 466.848175,519.801453 459.783813,517.955933 
	C465.168793,505.951904 470.967102,494.070251 476.990723,481.955139 
z"/>
<path fill="#FDFBFC" opacity="1.000000" stroke="none" 
	d="
M511.146851,519.588745 
	C504.095215,520.803650 497.074493,521.771362 490.022156,522.361511 
	C488.776337,522.465698 486.275391,521.031677 486.248840,520.244141 
	C485.788208,506.594971 484.820038,492.893036 488.185760,479.427612 
	C488.317322,478.901215 489.014984,478.516266 489.834167,477.984741 
	C497.201996,491.673767 504.184479,505.443420 511.146851,519.588745 
z"/>
</svg>